<?xml version="1.0" standalone="no"?>
<!DOCTYPE svg PUBLIC "-//W3C//DTD SVG 20010904//EN"
 "http://www.w3.org/TR/2001/REC-SVG-20010904/DTD/svg10.dtd">
<svg version="1.0" xmlns="http://www.w3.org/2000/svg"
 width="240.000000pt" height="240.000000pt" viewBox="0 0 240.000000 240.000000"
 preserveAspectRatio="xMidYMid meet">
<metadata>
Created by potrace 1.14, written by Peter Selinger 2001-2017
</metadata>
<g transform="translate(0.000000,240.000000) scale(0.100000,-0.100000)"
fill="#000000" stroke="none">
<path d="M310 1973 c-8 -3 -23 -15 -32 -27 -16 -19 -18 -70 -18 -676 l0 -654
-130 -132 c-121 -122 -130 -134 -124 -160 3 -16 13 -35 22 -41 12 -10 262 -13
1172 -13 1266 0 1193 -4 1193 59 0 28 -17 50 -126 159 l-127 127 0 655 c-1
648 -1 655 -21 680 l-21 25 -887 2 c-487 1 -893 -1 -901 -4z"/>
</g>
</svg>
